<?xml version="1.0" ?><!DOCTYPE svg  PUBLIC '-//W3C//DTD SVG 1.1//EN'  'http://www.w3.org/Graphics/SVG/1.1/DTD/svg11.dtd'><svg enable-background="new 0 0 128 128" id="Слой_1" version="1.1" viewBox="0 0 128 128" xml:space="preserve" xmlns="http://www.w3.org/2000/svg" xmlns:xlink="http://www.w3.org/1999/xlink"><g><g><g><g><rect fill="#B9D53C" height="120" width="90" x="19" y="4"/></g></g></g><g><g opacity="0.3"><g><g><rect fill="#FFFFFF" height="120" width="8" x="20" y="4"/></g></g></g><g opacity="0.3"><g><g><rect fill="#FFFFFF" height="120" width="8" x="36" y="4"/></g></g></g><g opacity="0.3"><g><g><rect fill="#FFFFFF" height="120" width="8" x="52" y="4"/></g></g></g><g opacity="0.3"><g><g><rect fill="#FFFFFF" height="120" width="8" x="68" y="4"/></g></g></g><g opacity="0.3"><g><g><rect fill="#FFFFFF" height="120" width="8" x="84" y="4"/></g></g></g><g opacity="0.3"><g><g><rect fill="#FFFFFF" height="120" width="8" x="100" y="4"/></g></g></g></g><g><g><g><path d="M79,20.5H49c-0.8,0-1.5-0.7-1.5-1.5V4c0-0.8,0.7-1.5,1.5-1.5h30c0.8,0,1.5,0.7,1.5,1.5v15      C80.5,19.8,79.8,20.5,79,20.5z M50.5,17.5h27v-12h-27V17.5z" fill="#FFFFFF"/></g></g></g><g><g><g><path d="M79,125.5H49c-0.8,0-1.5-0.7-1.5-1.5v-15c0-0.8,0.7-1.5,1.5-1.5h30c0.8,0,1.5,0.7,1.5,1.5v15      C80.5,124.8,79.8,125.5,79,125.5z M50.5,122.5h27v-12h-27V122.5z" fill="#FFFFFF"/></g></g></g><g><g><g><path d="M109,65.5H19c-0.8,0-1.5-0.7-1.5-1.5s0.7-1.5,1.5-1.5h90c0.8,0,1.5,0.7,1.5,1.5S109.8,65.5,109,65.5z" fill="#FFFFFF"/></g></g></g><g><g><g><path d="M109,125.5H19c-0.8,0-1.5-0.7-1.5-1.5V4c0-0.8,0.7-1.5,1.5-1.5h90c0.8,0,1.5,0.7,1.5,1.5v120      C110.5,124.8,109.8,125.5,109,125.5z M20.5,122.5h87V5.5h-87V122.5z" fill="#62355C"/></g></g></g><g><g><g><path d="M64,75.5c-6.3,0-11.5-5.2-11.5-11.5S57.7,52.5,64,52.5S75.5,57.7,75.5,64S70.3,75.5,64,75.5z M64,55.5      c-4.7,0-8.5,3.8-8.5,8.5s3.8,8.5,8.5,8.5s8.5-3.8,8.5-8.5S68.7,55.5,64,55.5z" fill="#FFFFFF"/></g></g></g><g><g><g><path d="M64,30.5c-6.3,0-11.5-5.2-11.5-11.5c0-0.8,0.7-1.5,1.5-1.5s1.5,0.7,1.5,1.5c0,4.7,3.8,8.5,8.5,8.5      s8.5-3.8,8.5-8.5c0-0.8,0.7-1.5,1.5-1.5s1.5,0.7,1.5,1.5C75.5,25.3,70.3,30.5,64,30.5z" fill="#FFFFFF"/></g></g></g><g><g><g><path d="M74,110.5c-0.8,0-1.5-0.7-1.5-1.5c0-4.7-3.8-8.5-8.5-8.5s-8.5,3.8-8.5,8.5c0,0.8-0.7,1.5-1.5,1.5      s-1.5-0.7-1.5-1.5c0-6.3,5.2-11.5,11.5-11.5s11.5,5.2,11.5,11.5C75.5,109.8,74.8,110.5,74,110.5z" fill="#FFFFFF"/></g></g></g></g></svg>