<?xml version="1.0" ?><!DOCTYPE svg  PUBLIC '-//W3C//DTD SVG 1.1//EN'  'http://www.w3.org/Graphics/SVG/1.1/DTD/svg11.dtd'><svg enable-background="new 0 0 128 128" id="Слой_1" version="1.1" viewBox="0 0 128 128" xml:space="preserve" xmlns="http://www.w3.org/2000/svg" xmlns:xlink="http://www.w3.org/1999/xlink"><g><g><g><g><g><path d="M117,39.5l-20-23l-20-6H51l-20,6l-20,23l14,13l5-5l0,65h0c11.3,3.3,22,5,33.7,5h0.6       c11.8,0,22.4-1.7,33.7-5h0l0-65l5,5L117,39.5z" fill="#C3E8F3"/></g></g></g></g><g opacity="0.15"><g><g><g><path d="M31.5,57c-0.5,0-1,0-1.5,0l0,55.5h0c7.5,2.2,14.7,3.7,22.1,4.4c7.9-6.1,12.9-15.7,12.9-26.4       C65,72,50,57,31.5,57z" fill="#62345B"/></g></g></g></g><g><g><g><g><polygon fill="#FFFFFF" points="38,18.5 59,10.5 51,10.5 31,16.5 11,39.5 25,52.5 28.8,48.6 19,39.5      "/></g></g></g></g><g><g><g><g><path d="M77,10.5v3c0,7.2-5.8,13-13,13h0c-7.2,0-13-5.8-13-13v-3" fill="#FFFFFF"/></g></g></g></g><g><g><g><g><path d="M56,13.5v-3h-5v3c0,7.2,5.8,13,13,13h0c0.9,0,1.7-0.1,2.5-0.2C60.5,25.1,56,19.8,56,13.5z" fill="#FFFFFF"/></g></g></g></g><g><g><g><g><path d="M64.3,119h-0.6c-11.6,0-22.4-1.6-34.1-5.1c-0.6-0.2-1.1-0.8-1.1-1.4V51.1l-2.4,2.4       c-0.6,0.6-1.5,0.6-2.1,0l-14-13c-0.6-0.6-0.6-1.5-0.1-2.1l20-23c0.2-0.2,0.4-0.4,0.7-0.5l20-6C50.7,9,50.9,9,51,9h26       c0.1,0,0.3,0,0.4,0.1l20,6c0.3,0.1,0.5,0.2,0.7,0.5l20,23c0.5,0.6,0.5,1.5-0.1,2.1l-14,13c-0.6,0.5-1.5,0.5-2.1,0l-2.4-2.4       l0,61.1c0,0.1,0,0.2,0,0.2c0,0.7-0.5,1.3-1.2,1.5C86.6,117.4,75.8,119,64.3,119z M31.5,111.4c11,3.2,21.3,4.6,32.2,4.6h0.6       c10.9,0,21.2-1.5,32.2-4.6V47.5c0-0.6,0.4-1.2,0.9-1.4c0.6-0.2,1.2-0.1,1.6,0.3l4,4l11.9-11L96.2,17.8L76.8,12H51.2l-19.4,5.8       L13.1,39.4l11.9,11l4-4c0.4-0.4,1.1-0.6,1.6-0.3c0.6,0.2,0.9,0.8,0.9,1.4V111.4z" fill="#AF9BAC"/></g></g></g></g><g><g><g><g><g><path d="M99,49.5c-0.3,0-0.5-0.1-0.7-0.3c-0.4-0.4-0.4-1,0.1-1.4l0.4-0.3c0.4-0.4,1-0.4,1.4,0.1        c0.4,0.4,0.4,1-0.1,1.4l-0.4,0.3C99.5,49.4,99.2,49.5,99,49.5z" fill="#AF9BAC"/></g></g></g></g><g><g><g><g><path d="M102.2,46.6c-0.3,0-0.5-0.1-0.7-0.3c-0.4-0.4-0.4-1,0.1-1.4l0.7-0.6c0.4-0.4,1-0.4,1.4,0.1        c0.4,0.4,0.4,1-0.1,1.4l-0.7,0.6C102.7,46.5,102.4,46.6,102.2,46.6z M105.7,43.3c-0.3,0-0.5-0.1-0.7-0.3        c-0.4-0.4-0.4-1,0.1-1.4l0.7-0.6c0.4-0.4,1-0.4,1.4,0.1c0.4,0.4,0.4,1-0.1,1.4l-0.7,0.6C106.1,43.2,105.9,43.3,105.7,43.3z         M109.1,40.1c-0.3,0-0.5-0.1-0.7-0.3c-0.4-0.4-0.4-1,0.1-1.4l0.7-0.6c0.4-0.4,1-0.4,1.4,0.1c0.4,0.4,0.4,1-0.1,1.4l-0.7,0.6        C109.6,40,109.4,40.1,109.1,40.1z" fill="#AF9BAC"/></g></g></g></g><g><g><g><g><path d="M112.6,36.8c-0.3,0-0.5-0.1-0.7-0.3c-0.4-0.4-0.4-1,0.1-1.4l0.4-0.3c0.4-0.4,1-0.4,1.4,0.1        c0.4,0.4,0.4,1-0.1,1.4l-0.4,0.3C113.1,36.7,112.9,36.8,112.6,36.8z" fill="#AF9BAC"/></g></g></g></g></g><g><g><g><g><g><path d="M15.4,36.8c-0.2,0-0.5-0.1-0.7-0.3l-0.4-0.3c-0.4-0.4-0.4-1-0.1-1.4c0.4-0.4,1-0.4,1.4-0.1l0.4,0.3        c0.4,0.4,0.4,1,0.1,1.4C15.9,36.7,15.6,36.8,15.4,36.8z" fill="#AF9BAC"/></g></g></g></g><g><g><g><g><path d="M25.8,46.6c-0.2,0-0.5-0.1-0.7-0.3l-0.7-0.6c-0.4-0.4-0.4-1-0.1-1.4c0.4-0.4,1-0.4,1.4-0.1l0.7,0.6        c0.4,0.4,0.4,1,0.1,1.4C26.4,46.5,26.1,46.6,25.8,46.6z M22.3,43.3c-0.2,0-0.5-0.1-0.7-0.3L21,42.4c-0.4-0.4-0.4-1-0.1-1.4        c0.4-0.4,1-0.4,1.4-0.1l0.7,0.6c0.4,0.4,0.4,1,0.1,1.4C22.9,43.2,22.6,43.3,22.3,43.3z M18.9,40.1c-0.2,0-0.5-0.1-0.7-0.3        l-0.7-0.6c-0.4-0.4-0.4-1-0.1-1.4c0.4-0.4,1-0.4,1.4-0.1l0.7,0.6c0.4,0.4,0.4,1,0.1,1.4C19.4,40,19.1,40.1,18.9,40.1z" fill="#AF9BAC"/></g></g></g></g><g><g><g><g><path d="M29,49.5c-0.2,0-0.5-0.1-0.7-0.3L28,48.9c-0.4-0.4-0.4-1-0.1-1.4c0.4-0.4,1-0.4,1.4-0.1l0.4,0.3        c0.4,0.4,0.4,1,0.1,1.4C29.5,49.4,29.3,49.5,29,49.5z" fill="#AF9BAC"/></g></g></g></g></g><g><g><g><g><path d="M64,28c-8,0-14.5-6.5-14.5-14.5v-3C49.5,9.7,50.2,9,51,9s1.5,0.7,1.5,1.5v3C52.5,19.8,57.7,25,64,25       c6.3,0,11.5-5.2,11.5-11.5v-3C75.5,9.7,76.2,9,77,9s1.5,0.7,1.5,1.5v3C78.5,21.5,72,28,64,28z" fill="#AF9BAC"/></g></g></g></g><g><g><g><g><circle cx="83.2" cy="40.5" fill="#FFFFFF" r="5"/></g></g></g></g><g><g><g><g><g><circle cx="31.5" cy="90.5" fill="#FFFFFF" r="27.5"/></g></g></g><g><g><g><path d="M10.4,73.8l-0.7,0C6.1,78.4,4,84.2,4,90.5c0,0.1,0,0.2,0,0.3l0.5,0.4l9.2-6.6L10.4,73.8z" fill="#636067"/></g></g></g><g><g><g><path d="M53.5,74l-0.1,0l-3.8,10.7l9,6.9l0.4-0.3c0-0.3,0-0.6,0-0.8C59,84.3,57,78.6,53.5,74z" fill="#636067"/></g></g></g><g><g><g><path d="M58.6,93.1c-0.3,0-0.6-0.1-0.9-0.3l-9-6.9c-0.5-0.4-0.7-1.1-0.5-1.7L52,73.5c0.2-0.6,0.8-1,1.4-1        l0.1,0c0.8,0,1.5,0.7,1.5,1.5c0,0.4-0.2,0.8-0.4,1l-3.2,9.1l6.7,5.1c0.3-0.2,0.6-0.3,0.9-0.3c0.8,0,1.5,0.7,1.5,1.5        c0,0.2,0,0.4,0,0.7l0,0.2c0,0.5-0.3,0.9-0.6,1.2l-0.4,0.3C59.2,93,58.9,93.1,58.6,93.1z" fill="#62355C"/></g></g></g><g><g><g><path d="M22.4,64.6l9.1,6.7l9.2-6.6l0,0c-2.9-1-5.9-1.6-9.2-1.6C28.3,63,25.2,63.6,22.4,64.6z" fill="#636067"/></g></g></g><g><g><g><path d="M9.2,106.5c3.5,4.9,8.7,8.6,14.7,10.4l0.3-0.2l-4-10.6L9.2,106.5z" fill="#636067"/></g></g></g><g><g><g><g><path d="M8,90.5c0-14.3,11-26.1,25-27.4C32.2,63,31.3,63,30.5,63C15.3,63,3,75.3,3,90.5         C3,105.7,15.3,118,30.5,118c0.8,0,1.7,0,2.5-0.1C19,116.6,8,104.8,8,90.5z" fill="#FFFFFF"/></g></g></g></g><g><g><g><path d="M23.8,118.4c-0.4,0-0.9-0.2-1.2-0.6c-0.3-0.4-0.4-1-0.2-1.4l-3.3-8.8L9.2,108c-0.8,0-1.5-0.6-1.6-1.4        c0-0.8,0.6-1.5,1.4-1.6l11-0.5c0.6,0,1.2,0.4,1.5,1l4,10.6c0.2,0.6,0,1.3-0.5,1.7l-0.3,0.2C24.5,118.3,24.2,118.4,23.8,118.4z        " fill="#62355C"/></g></g></g><g><g><g><path d="M54.2,106.1L54.2,106.1l-11.3-0.1l-3.6,10.7l0.2,0.2C45.5,115,50.7,111.2,54.2,106.1z" fill="#636067"/></g></g></g><g><g><g><path d="M39.4,118.3c-0.3,0-0.6-0.1-0.9-0.3l-0.2-0.2c-0.5-0.4-0.7-1.1-0.5-1.7l3.6-10.7        c0.2-0.6,0.8-1.1,1.4-1l11.3,0.1c0.7,0,1.2,0.4,1.4,1.1c0.2,0.8-0.2,1.6-1,1.9c-0.2,0.1-0.4,0.1-0.6,0.1l-10.1-0.1l-3,9        c0.1,0.4,0,0.9-0.2,1.3C40.3,118.1,39.9,118.3,39.4,118.3z" fill="#62355C"/></g></g></g><g><g><g><path d="M31.5,119.5c-16,0-29-13-29-29s13-29,29-29s29,13,29,29S47.5,119.5,31.5,119.5z M31.5,64.5        c-14.3,0-26,11.7-26,26s11.7,26,26,26s26-11.7,26-26S45.8,64.5,31.5,64.5z" fill="#62355C"/></g></g></g><g><g><g><polygon fill="#636067" points="24.9,98.8 20.8,86.3 31.5,78.5 42.2,86.3 38.1,98.8       "/></g></g></g><g><g><g><path d="M38.1,100.3H24.9c-0.6,0-1.2-0.4-1.4-1l-4.1-12.6c-0.2-0.6,0-1.3,0.5-1.7l10.7-7.8        c0.5-0.4,1.2-0.4,1.8,0l10.7,7.8c0.5,0.4,0.7,1.1,0.5,1.7l-4.1,12.6C39.3,99.9,38.8,100.3,38.1,100.3z M26,97.3h11l3.4-10.5        l-8.9-6.5l-8.9,6.5L26,97.3z" fill="#62355C"/></g></g></g><g><g><g><path d="M42.8,107.4c-0.5,0-1-0.2-1.2-0.7l-4.7-7.1c-0.5-0.7-0.3-1.6,0.4-2.1c0.7-0.5,1.6-0.3,2.1,0.4l4.7,7.1        c0.5,0.7,0.3,1.6-0.4,2.1C43.4,107.4,43.1,107.4,42.8,107.4z" fill="#62355C"/></g></g></g><g><g><g><path d="M20.2,107.6c-0.3,0-0.6-0.1-0.8-0.2c-0.7-0.5-0.9-1.4-0.4-2.1l4.7-7.2c0.5-0.7,1.4-0.9,2.1-0.4        c0.7,0.5,0.9,1.4,0.4,2.1l-4.7,7.2C21.1,107.3,20.6,107.6,20.2,107.6z" fill="#62355C"/></g></g></g><g><g><g><path d="M31.5,80c-0.8,0-1.5-0.7-1.5-1.5l0-7.3c0-0.8,0.7-1.5,1.5-1.5c0,0,0,0,0,0c0.8,0,1.5,0.7,1.5,1.5        l0,7.3C33,79.3,32.3,80,31.5,80C31.5,80,31.5,80,31.5,80z" fill="#62355C"/></g></g></g><g><g><g><path d="M42.2,87.8c-0.7,0-1.3-0.5-1.5-1.2c-0.2-0.8,0.3-1.6,1.2-1.8l7.4-1.6c0.8-0.2,1.6,0.3,1.8,1.2        s-0.3,1.6-1.2,1.8l-7.4,1.6C42.4,87.8,42.3,87.8,42.2,87.8z" fill="#62355C"/></g></g></g><g><g><g><path d="M20.8,87.8c-0.1,0-0.2,0-0.3,0l-7-1.7c-0.8-0.2-1.3-1-1.1-1.8c0.2-0.8,1-1.3,1.8-1.1l7,1.7        c0.8,0.2,1.3,1,1.1,1.8C22.1,87.3,21.5,87.8,20.8,87.8z" fill="#62355C"/></g></g></g><g><g><g><path d="M4.5,92.7c-0.3,0-0.6-0.1-0.9-0.3L3.1,92c-0.4-0.3-0.6-0.7-0.6-1.2l0-0.3C2.5,89.7,3.2,89,4,89        c0.3,0,0.5,0.1,0.7,0.2L12,84l-2.8-8.8c-0.6-0.2-1.1-0.8-1.1-1.5c0-0.8,0.7-1.5,1.5-1.5c0,0,0,0,0,0l0.7,0        c0.6,0,1.2,0.4,1.4,1.1l3.4,10.8c0.2,0.6,0,1.3-0.6,1.7l-9.2,6.6C5.2,92.6,4.9,92.7,4.5,92.7z" fill="#62355C"/></g></g></g><g><g><g><path d="M31.5,72.7c-0.3,0-0.6-0.1-0.9-0.3l-9.1-6.7c-0.7-0.5-0.8-1.4-0.3-2.1c0.5-0.7,1.4-0.8,2.1-0.3l8.2,6        l8.1-5.8c0.2-0.2,0.4-0.3,0.6-0.4c0.8-0.3,1.6,0.2,1.9,1c0.2,0.6,0,1.3-0.5,1.7l-9.2,6.6C32.1,72.6,31.8,72.7,31.5,72.7z" fill="#62355C"/></g></g></g></g></g></g></svg>