<?xml version="1.0" ?><!DOCTYPE svg  PUBLIC '-//W3C//DTD SVG 1.1//EN'  'http://www.w3.org/Graphics/SVG/1.1/DTD/svg11.dtd'><svg enable-background="new 0 0 128 128" id="Слой_1" version="1.1" viewBox="0 0 128 128" xml:space="preserve" xmlns="http://www.w3.org/2000/svg" xmlns:xlink="http://www.w3.org/1999/xlink"><g><g><g><g><g><path d="M13.6,106.6L3.3,46.9C1.4,36.4,8.2,26.3,18.5,24l82-18.6c13.4-3,25.8,8.1,24.3,21.7l-8.8,78.3       c-1.1,10.1-9.7,17.8-19.9,17.8H33.3C23.6,123.2,15.3,116.2,13.6,106.6z" fill="#D8EFF4"/></g></g></g></g><g><g><g><path d="M101.3,124H26.7c-12,0-21.3-10.5-19.8-22.5l5-40c1.3-10,9.8-17.5,19.8-17.5h64.7      c10.1,0,18.6,7.5,19.8,17.5l5,40C122.7,113.5,113.4,124,101.3,124z" fill="#B9D53C"/></g></g></g><g opacity="0.5"><g><g><path d="M106.4,64.2l-5-5l5-5l2.6,2.6v-4.2l-0.4-0.4l0.4-0.4v-4.2l-2.6,2.6l-5-5l5-5l2.6,2.6v-4.2l-0.4-0.4      l0.4-0.4v-4.2l-2.6,2.6l-5-5l5-5l2.6,2.6v-4.2l-0.4-0.4l0.4-0.4v-4.2l-2.6,2.6l-5-5l5-5l2.6,2.6v-4.2l-0.4-0.4l0.4-0.4V6h-0.9      l-1.7,1.7L104.8,6h-4.2l3.8,3.8l-5,5l-5-5L98.2,6H94l-1.7,1.7L90.6,6h-4.2l3.8,3.8l-5,5l-5-5L84,6h-4.2l-1.7,1.7L76.5,6h-4.2      L76,9.8l-5,5l-5-5L69.9,6h-4.2L64,7.7L62.3,6h-4.2l3.8,3.8l-5,5l-5-5L55.8,6h-4.2l-1.7,1.7L48.2,6H44l3.8,3.8l-5,5l-5-5L41.6,6      h-4.2l-1.7,1.7L34,6h-4.2l3.8,3.8l-5,5l-5-5L27.5,6h-4.2l-1.7,1.7L19.9,6H19v3.3l0.4,0.4L19,10.2v4.2l2.6-2.6l5,5l-5,5L19,19.2      v4.2l0.4,0.4L19,24.4v4.2l2.6-2.6l5,5l-5,5L19,33.4v4.2l0.4,0.4L19,38.5v4.2l2.6-2.6l5,5l-5,5L19,47.5v4.2l0.4,0.4L19,52.7v4.2      l2.6-2.6l5,5l-5,5L19,61.7v4.2l0.1,0.1h5l4.6-4.6l4.6,4.6h5l4.6-4.6l4.6,4.6h5l4.6-4.6l4.6,4.6h5l4.6-4.6l4.6,4.6h5l4.6-4.6      l4.6,4.6h5l4.6-4.6L104,66h5l0.1-0.1v-4.2L106.4,64.2z M104.3,38.1l-5,5l-5-5l5-5L104.3,38.1z M40.7,45.1l-5,5l-5-5l5-5      L40.7,45.1z M30.8,31l5-5l5,5l-5,5L30.8,31z M37.8,38.1l5-5l5,5l-5,5L37.8,38.1z M44.9,31l5-5l5,5l-5,5L44.9,31z M49.9,40.2l5,5      l-5,5l-5-5L49.9,40.2z M52,38.1l5-5l5,5l-5,5L52,38.1z M59,31l5-5l5,5l-5,5L59,31z M64,40.2l5,5l-5,5l-5-5L64,40.2z M66.1,38.1      l5-5l5,5l-5,5L66.1,38.1z M73.2,31l5-5l5,5l-5,5L73.2,31z M78.1,40.2l5,5l-5,5l-5-5L78.1,40.2z M80.3,38.1l5-5l5,5l-5,5      L80.3,38.1z M87.3,31l5-5l5,5l-5,5L87.3,31z M92.3,40.2l5,5l-5,5l-5-5L92.3,40.2z M104.3,23.9l-5,5l-5-5l5-5L104.3,23.9z       M92.3,11.9l5,5l-5,5l-5-5L92.3,11.9z M90.2,23.9l-5,5l-5-5l5-5L90.2,23.9z M78.1,11.9l5,5l-5,5l-5-5L78.1,11.9z M76,23.9l-5,5      l-5-5l5-5L76,23.9z M64,11.9l5,5l-5,5l-5-5L64,11.9z M61.9,23.9l-5,5l-5-5l5-5L61.9,23.9z M49.9,11.9l5,5l-5,5l-5-5L49.9,11.9z       M47.7,23.9l-5,5l-5-5l5-5L47.7,23.9z M35.7,11.9l5,5l-5,5l-5-5L35.7,11.9z M23.7,23.9l5-5l5,5l-5,5L23.7,23.9z M23.7,38.1l5-5      l5,5l-5,5L23.7,38.1z M23.7,52.2l5-5l5,5l-5,5L23.7,52.2z M35.7,64.2l-5-5l5-5l5,5L35.7,64.2z M37.8,52.2l5-5l5,5l-5,5      L37.8,52.2z M49.9,64.2l-5-5l5-5l5,5L49.9,64.2z M52,52.2l5-5l5,5l-5,5L52,52.2z M64,64.2l-5-5l5-5l5,5L64,64.2z M66.1,52.2l5-5      l5,5l-5,5L66.1,52.2z M78.1,64.2l-5-5l5-5l5,5L78.1,64.2z M80.3,52.2l5-5l5,5l-5,5L80.3,52.2z M92.3,64.2l-5-5l5-5l5,5      L92.3,64.2z M94.4,52.2l5-5l5,5l-5,5L94.4,52.2z" fill="#FFFFFF"/></g></g></g><g><g><g><path d="M6.7,77.5h114.7c0-1-1.3-5-1.3-5H7.9C7.9,72.5,6.6,76.5,6.7,77.5z" fill="#FFFFFF"/></g></g></g><g><g><g><path d="M19.1,72L19,12h89c0.6,0,1,0.4,1,1l-0.1,59l5.1,0V12c0-2.8-2.2-5-5-5H19c-2.8,0-5,2.2-5,5v60L19.1,72" fill="#FFFFFF"/></g></g></g><g><g><g><path d="M114,73.5L114,73.5l-5.1,0c-0.4,0-0.8-0.2-1.1-0.4c-0.3-0.3-0.4-0.7-0.4-1.1l0.1-58.5h-87L20.6,72      c0,0.4-0.2,0.8-0.4,1.1c-0.3,0.3-0.7,0.4-1.1,0.4l-5.1,0c-0.4,0-0.8-0.2-1.1-0.4s-0.4-0.7-0.4-1.1V12c0-3.6,2.9-6.5,6.5-6.5h90      c3.6,0,6.5,2.9,6.5,6.5v60c0,0.4-0.2,0.8-0.4,1.1S114.4,73.5,114,73.5z M110.4,70.5l2.1,0V12c0-1.9-1.6-3.5-3.5-3.5H19      c-1.9,0-3.5,1.6-3.5,3.5v58.5l2.1,0L17.5,13c0-0.7,0.3-1.3,0.7-1.8c0.5-0.5,1.1-0.7,1.8-0.7h88c0.7,0,1.3,0.3,1.8,0.7      c0.5,0.5,0.7,1.1,0.7,1.8L110.4,70.5z" fill="#62355C"/></g></g></g><g><g><g><g><circle cx="64" cy="84" fill="#FFFFFF" r="30"/></g></g></g><g><g><g><path d="M41,65.8l-0.8,0C36.3,70.8,34,77.1,34,84c0,0.1,0,0.2,0,0.3l0.6,0.4l10.1-7.2L41,65.8z" fill="#636067"/></g></g></g><g><g><g><path d="M88,66l-0.2,0l-4.1,11.7l9.8,7.5l0.4-0.3c0-0.3,0-0.6,0-0.9C94,77.3,91.8,71,88,66z" fill="#636067"/></g></g></g><g><g><g><path d="M93.6,86.7c-0.3,0-0.6-0.1-0.9-0.3l-9.8-7.5c-0.5-0.4-0.7-1.1-0.5-1.7l4.1-11.7c0.2-0.6,0.8-1,1.5-1       l0.2,0c0.8,0,1.3,2.3,1,2.6l-3.5,10.1l7.5,5.7c0.3-0.2,0.6-0.4,1-0.4c0.8,0,1.2,3.4,0.8,3.6l-0.4,0.3       C94.2,86.6,93.9,86.7,93.6,86.7z" fill="#62355C"/></g></g></g><g><g><g><path d="M54,55.7L64,63l10-7.2l0-0.1c-3.1-1.1-6.5-1.7-10-1.7C60.5,54,57.2,54.6,54,55.7z" fill="#636067"/></g></g></g><g><g><g><path d="M39.6,101.5c3.9,5.4,9.5,9.4,16,11.3l0.3-0.2L51.6,101L39.6,101.5z" fill="#636067"/></g></g></g><g><g><g><g><path d="M38.3,84c0-15.8,12.3-28.8,27.9-29.9C65.4,54,64.7,54,64,54c-16.6,0-30,13.4-30,30s13.4,30,30,30        c0.7,0,1.4,0,2.1-0.1C50.6,112.8,38.3,99.8,38.3,84z" fill="#FFFFFF"/></g></g></g></g><g><g><g><path d="M54.2,112.3l-3.6-9.7L39.7,103c-0.8,0-1-3-0.1-3l12-0.5c0.6,0,1.2,0.4,1.5,1l4.3,11.6       c0.2,0.6,0,1.3-0.5,1.7C56.9,113.7,54.1,112.8,54.2,112.3z" fill="#62355C"/></g></g></g><g><g><g><path d="M88.7,101L88.7,101l-12.4-0.1l-3.9,11.7l0.2,0.2C79.3,110.7,84.9,106.5,88.7,101z" fill="#636067"/></g></g></g><g><g><g><path d="M71.5,113.8c-0.5-0.4-0.7-1.1-0.5-1.7l3.9-11.7c0.2-0.6,0.8-1,1.4-1c0,0,0,0,0,0l12.4,0.1       c0.6,0,0,3-0.2,3l-11.1-0.1l-3.3,10C74.2,112.7,71.5,113.8,71.5,113.8z" fill="#62355C"/></g></g></g><g><g><g><path d="M64,115.5c-17.4,0-31.5-14.1-31.5-31.5S46.6,52.5,64,52.5S95.5,66.6,95.5,84S81.4,115.5,64,115.5z        M64,55.5c-15.7,0-28.5,12.8-28.5,28.5s12.8,28.5,28.5,28.5S92.5,99.7,92.5,84S79.7,55.5,64,55.5z" fill="#62355C"/></g></g></g><g><g><g><polygon fill="#636067" points="56.8,93.1 52.3,79.4 64,70.9 75.7,79.4 71.2,93.1      "/></g></g></g><g><g><g><path d="M71.2,94.6H56.8c-0.6,0-1.2-0.4-1.4-1l-4.5-13.7c-0.2-0.6,0-1.3,0.5-1.7l11.7-8.5       c0.5-0.4,1.2-0.4,1.8,0l11.7,8.5c0.5,0.4,0.7,1.1,0.5,1.7l-4.5,13.7C72.4,94.2,71.9,94.6,71.2,94.6z M57.9,91.6h12.2L73.9,80       L64,72.8L54.1,80L57.9,91.6z" fill="#62355C"/></g></g></g><g><g><g><path d="M76.4,102.3c-0.5,0-1-0.2-1.2-0.7L70,93.9c-0.5-0.7-0.3-1.6,0.4-2.1c0.7-0.5,1.6-0.3,2.1,0.4l5.2,7.7       c0.5,0.7,0.3,1.6-0.4,2.1C76.9,102.3,76.7,102.3,76.4,102.3z" fill="#62355C"/></g></g></g><g><g><g><path d="M51.6,102.5c-0.3,0-0.6-0.1-0.8-0.2c-0.7-0.5-0.9-1.4-0.4-2.1l5.2-7.9c0.5-0.7,1.4-0.9,2.1-0.4       c0.7,0.5,0.9,1.4,0.4,2.1l-5.2,7.9C52.6,102.2,52.1,102.5,51.6,102.5z" fill="#62355C"/></g></g></g><g><g><g><path d="M64,72.4c-0.8,0-1.5-0.7-1.5-1.5l0-7.9c0-0.8,0.7-1.5,1.5-1.5c0,0,0,0,0,0c0.8,0,1.5,0.7,1.5,1.5l0,7.9       C65.5,71.7,64.8,72.4,64,72.4C64,72.4,64,72.4,64,72.4z" fill="#62355C"/></g></g></g><g><g><g><path d="M75.7,80.9c-0.7,0-1.3-0.5-1.5-1.2c-0.2-0.8,0.3-1.6,1.2-1.8l8.1-1.7c0.8-0.2,1.6,0.3,1.8,1.2       c0.2,0.8-0.3,1.6-1.2,1.8L76,80.8C75.9,80.9,75.8,80.9,75.7,80.9z" fill="#62355C"/></g></g></g><g><g><g><path d="M34.6,86.2c-0.3,0-0.6-0.1-0.9-0.3c0,0-0.5-3.5,0.3-3.5c0.3,0,0.6,0.1,0.8,0.2l8.1-5.8l-3.1-9.7       c-0.7-0.2,0.3-3,0.3-3l0.8,0c0.6,0,1.2,0.4,1.4,1.1l3.7,11.8c0.2,0.6,0,1.3-0.6,1.7L35.5,86C35.2,86.2,34.9,86.2,34.6,86.2z" fill="#62355C"/></g></g></g><g><g><g><path d="M52.3,80.9c-0.1,0-0.2,0-0.3,0L44.3,79c-0.8-0.2-1.3-1-1.1-1.8c0.2-0.8,1-1.3,1.8-1.1l7.7,1.8       c0.8,0.2,1.3,1,1.1,1.8C53.6,80.4,53,80.9,52.3,80.9z" fill="#62355C"/></g></g></g><g><g><g><path d="M64,64.5c-0.3,0-0.6-0.1-0.9-0.3l-9.9-7.3c-0.7-0.5,1.1-2.9,1.8-2.4l9.1,6.6l9-6.4       c0.2-0.2,2.5,1.9,1.9,2.3l-10,7.2C64.6,64.4,64.3,64.5,64,64.5z" fill="#62355C"/></g></g></g></g></g></svg>